<svg width="34" height="32" viewBox="0 0 34 32" fill="none" xmlns="http://www.w3.org/2000/svg">
<path d="M1.512 28H19.5C20.327 28 21 27.327 21 26.5V7.5C21 7.477 20.99 7.457 20.987 7.435C20.9842 7.41404 20.9799 7.39332 20.974 7.373C20.9544 7.28777 20.9123 7.20937 20.852 7.146L13.853 0.147C13.7737 0.0720789 13.6723 0.0247349 13.564 0.012C13.543 0.01 13.523 0 13.5 0H1.506C0.676 0 0 0.673 0 1.5V26.5C0 27.327 0.678 28 1.512 28ZM14 1.707L19.293 7H14.5C14.3674 7 14.2402 6.94732 14.1464 6.85355C14.0527 6.75979 14 6.63261 14 6.5V1.707ZM1 1.5C1 1.224 1.227 1 1.506 1H13V6.5C13 7.327 13.673 8 14.5 8H20V26.5C20 26.6326 19.9473 26.7598 19.8536 26.8536C19.7598 26.9473 19.6326 27 19.5 27H1.512C1.44555 27.0008 1.37959 26.9885 1.3179 26.9638C1.25621 26.9391 1.19998 26.9025 1.15244 26.856C1.10489 26.8096 1.06696 26.7543 1.0408 26.6932C1.01465 26.6321 1.00078 26.5665 1 26.5V1.5Z" fill="#25242B"/>
<path d="M4.5 12H16.5C16.6326 12 16.7598 11.9473 16.8536 11.8536C16.9473 11.7598 17 11.6326 17 11.5C17 11.3674 16.9473 11.2402 16.8536 11.1464C16.7598 11.0527 16.6326 11 16.5 11H4.5C4.36739 11 4.24021 11.0527 4.14645 11.1464C4.05268 11.2402 4 11.3674 4 11.5C4 11.6326 4.05268 11.7598 4.14645 11.8536C4.24021 11.9473 4.36739 12 4.5 12Z" fill="#25242B"/>
<path d="M4.5 16H16.5C16.6326 16 16.7598 15.9473 16.8536 15.8536C16.9473 15.7598 17 15.6326 17 15.5C17 15.3674 16.9473 15.2402 16.8536 15.1464C16.7598 15.0527 16.6326 15 16.5 15H4.5C4.36739 15 4.24021 15.0527 4.14645 15.1464C4.05268 15.2402 4 15.3674 4 15.5C4 15.6326 4.05268 15.7598 4.14645 15.8536C4.24021 15.9473 4.36739 16 4.5 16Z" fill="#25242B"/>
<path d="M4.5 8H9.5C9.63261 8 9.75979 7.94732 9.85355 7.85355C9.94732 7.75979 10 7.63261 10 7.5C10 7.36739 9.94732 7.24021 9.85355 7.14645C9.75979 7.05268 9.63261 7 9.5 7H4.5C4.36739 7 4.24021 7.05268 4.14645 7.14645C4.05268 7.24021 4 7.36739 4 7.5C4 7.63261 4.05268 7.75979 4.14645 7.85355C4.24021 7.94732 4.36739 8 4.5 8Z" fill="#25242B"/>
<path d="M4.5 20H16.5C16.6326 20 16.7598 19.9473 16.8536 19.8536C16.9473 19.7598 17 19.6326 17 19.5C17 19.3674 16.9473 19.2402 16.8536 19.1464C16.7598 19.0527 16.6326 19 16.5 19H4.5C4.36739 19 4.24021 19.0527 4.14645 19.1464C4.05268 19.2402 4 19.3674 4 19.5C4 19.6326 4.05268 19.7598 4.14645 19.8536C4.24021 19.9473 4.36739 20 4.5 20Z" fill="#25242B"/>
<path d="M4.5 24H16.5C16.6326 24 16.7598 23.9473 16.8536 23.8536C16.9473 23.7598 17 23.6326 17 23.5C17 23.3674 16.9473 23.2402 16.8536 23.1464C16.7598 23.0527 16.6326 23 16.5 23H4.5C4.36739 23 4.24021 23.0527 4.14645 23.1464C4.05268 23.2402 4 23.3674 4 23.5C4 23.6326 4.05268 23.7598 4.14645 23.8536C4.24021 23.9473 4.36739 24 4.5 24Z" fill="#25242B"/>
<path d="M21.5 5H26V10.5C26 11.327 26.673 12 27.5 12H33V30.5C33 30.6326 32.9473 30.7598 32.8536 30.8536C32.7598 30.9473 32.6326 31 32.5 31H14.512C14.4455 31.0008 14.3796 30.9885 14.3179 30.9638C14.2562 30.9391 14.2 30.9025 14.1524 30.856C14.1049 30.8096 14.067 30.7543 14.0408 30.6932C14.0146 30.6321 14.0008 30.5665 14 30.5V29.5C14 29.3674 13.9473 29.2402 13.8536 29.1464C13.7598 29.0527 13.6326 29 13.5 29C13.3674 29 13.2402 29.0527 13.1464 29.1464C13.0527 29.2402 13 29.3674 13 29.5V30.5C13 31.327 13.678 32 14.512 32H32.5C33.327 32 34 31.327 34 30.5V11.5C34 11.477 33.99 11.457 33.987 11.435C33.9842 11.414 33.9799 11.3933 33.974 11.373C33.9544 11.2878 33.9123 11.2094 33.852 11.146L26.853 4.147C26.7742 4.07146 26.6725 4.02431 26.564 4.013C26.543 4.01 26.523 4 26.5 4H21.5C21.3674 4 21.2402 4.05268 21.1464 4.14645C21.0527 4.24021 21 4.36739 21 4.5C21 4.63261 21.0527 4.75979 21.1464 4.85355C21.2402 4.94732 21.3674 5 21.5 5ZM27.5 11C27.3674 11 27.2402 10.9473 27.1464 10.8536C27.0527 10.7598 27 10.6326 27 10.5V5.707L32.293 11H27.5Z" fill="#25242B"/>
<path d="M23.5 16H29.5C29.6326 16 29.7598 15.9473 29.8536 15.8536C29.9473 15.7598 30 15.6326 30 15.5C30 15.3674 29.9473 15.2402 29.8536 15.1464C29.7598 15.0527 29.6326 15 29.5 15H23.5C23.3674 15 23.2402 15.0527 23.1464 15.1464C23.0527 15.2402 23 15.3674 23 15.5C23 15.6326 23.0527 15.7598 23.1464 15.8536C23.2402 15.9473 23.3674 16 23.5 16Z" fill="#25242B"/>
<path d="M23.5 20H29.5C29.6326 20 29.7598 19.9473 29.8536 19.8536C29.9473 19.7598 30 19.6326 30 19.5C30 19.3674 29.9473 19.2402 29.8536 19.1464C29.7598 19.0527 29.6326 19 29.5 19H23.5C23.3674 19 23.2402 19.0527 23.1464 19.1464C23.0527 19.2402 23 19.3674 23 19.5C23 19.6326 23.0527 19.7598 23.1464 19.8536C23.2402 19.9473 23.3674 20 23.5 20Z" fill="#25242B"/>
<path d="M23.5 24H29.5C29.6326 24 29.7598 23.9473 29.8536 23.8536C29.9473 23.7598 30 23.6326 30 23.5C30 23.3674 29.9473 23.2402 29.8536 23.1464C29.7598 23.0527 29.6326 23 29.5 23H23.5C23.3674 23 23.2402 23.0527 23.1464 23.1464C23.0527 23.2402 23 23.3674 23 23.5C23 23.6326 23.0527 23.7598 23.1464 23.8536C23.2402 23.9473 23.3674 24 23.5 24Z" fill="#25242B"/>
<path d="M23.5 28H29.5C29.6326 28 29.7598 27.9473 29.8536 27.8536C29.9473 27.7598 30 27.6326 30 27.5C30 27.3674 29.9473 27.2402 29.8536 27.1464C29.7598 27.0527 29.6326 27 29.5 27H23.5C23.3674 27 23.2402 27.0527 23.1464 27.1464C23.0527 27.2402 23 27.3674 23 27.5C23 27.6326 23.0527 27.7598 23.1464 27.8536C23.2402 27.9473 23.3674 28 23.5 28Z" fill="#25242B"/>
</svg>
