<svg width="32" height="32" viewBox="0 0 32 32" fill="none" xmlns="http://www.w3.org/2000/svg">
<path d="M23.7935 12.1406H14.4957C14.2249 12.1406 13.9652 12.2482 13.7737 12.4397C13.5822 12.6312 13.4746 12.8909 13.4746 13.1618C13.4746 13.4326 13.5822 13.6923 13.7737 13.8838C13.9652 14.0753 14.2249 14.1829 14.4957 14.1829H23.7935C24.0644 14.1829 24.3241 14.0753 24.5156 13.8838C24.7071 13.6923 24.8147 13.4326 24.8147 13.1618C24.8147 12.8909 24.7071 12.6312 24.5156 12.4397C24.3241 12.2482 24.0644 12.1406 23.7935 12.1406Z" fill="#25242B"/>
<path d="M23.7926 17.8209H8.20864C7.93781 17.8209 7.67812 17.9284 7.48662 18.1199C7.29512 18.3114 7.1875 18.5712 7.1875 18.842C7.1875 19.1128 7.29512 19.3725 7.48662 19.564C7.67812 19.7555 7.93781 19.8631 8.20864 19.8631H23.7926C24.0634 19.8631 24.3231 19.7555 24.5146 19.564C24.7061 19.3725 24.8137 19.1128 24.8137 18.842C24.8137 18.5712 24.7061 18.3114 24.5146 18.1199C24.3231 17.9284 24.0634 17.8209 23.7926 17.8209Z" fill="#25242B"/>
<path d="M15.9998 6.44578e-08C13.2607 0.000821884 10.5677 0.704602 8.17848 2.04398C5.78923 3.38335 3.78373 5.3135 2.35385 7.64971C0.923983 9.98593 0.117617 12.65 0.0119223 15.387C-0.0937719 18.124 0.504723 20.8424 1.75017 23.2819L0.0278776 30.7485C-0.012896 30.9232 -0.00687437 31.1056 0.0453702 31.2772C0.0976147 31.4488 0.194215 31.6036 0.325418 31.726C0.456621 31.8484 0.617796 31.934 0.79265 31.9741C0.967504 32.0143 1.14984 32.0076 1.32129 31.9548L8.08258 29.8866C10.2106 31.0994 12.5887 31.8072 15.0335 31.9554C17.4783 32.1036 19.9246 31.6883 22.1835 30.7414C24.4424 29.7946 26.4536 28.3416 28.0621 26.4944C29.6705 24.6472 30.8331 22.4553 31.4604 20.0876C32.0876 17.72 32.1625 15.2399 31.6795 12.8387C31.1965 10.4374 30.1684 8.17924 28.6745 6.23826C27.1807 4.29727 25.2609 2.72535 23.0633 1.64376C20.8658 0.562157 18.4491 -0.000219825 15.9998 6.44578e-08ZM15.9998 29.9533C13.4393 29.9494 10.9294 29.2399 8.74564 27.9029C8.58557 27.8057 8.40192 27.7544 8.21467 27.7545C8.11311 27.754 8.01207 27.7691 7.91513 27.7994L2.4146 29.4809L3.82515 23.3677C3.88173 23.1243 3.84733 22.8686 3.72846 22.6488C2.27171 19.962 1.73718 16.8713 2.20693 13.8513C2.67669 10.8313 4.12476 8.04896 6.32879 5.93157C8.53282 3.81419 11.3709 2.47881 14.4073 2.13049C17.4438 1.78218 20.5106 2.44018 23.1368 4.00346C25.7631 5.56674 27.8036 7.94887 28.945 10.784C30.0864 13.6192 30.2657 16.7507 29.4552 19.6976C28.6447 22.6445 26.8893 25.2439 24.4585 27.0966C22.0278 28.9493 19.0561 29.9529 15.9998 29.9533Z" fill="#25242B"/>
</svg>
