<svg width="30" height="32" viewBox="0 0 30 32" fill="none" xmlns="http://www.w3.org/2000/svg">
<path d="M25.6314 0H3.86257C2.83834 0.00132882 1.85646 0.408884 1.13233 1.13324C0.40821 1.8576 0.00099612 2.83961 0 3.86385V28.1374C0.00132817 29.1614 0.408705 30.1431 1.13279 30.8672C1.85688 31.5913 2.83856 31.9987 3.86257 32H25.6314C26.6554 31.9987 27.6371 31.5913 28.3612 30.8672C29.0852 30.1431 29.4926 29.1614 29.4939 28.1374V3.86761C29.494 2.84272 29.0872 1.85975 28.3629 1.13457C27.6387 0.409401 26.6562 0.00133015 25.6314 0ZM27.6116 28.1374C27.6109 28.6624 27.4021 29.1657 27.0309 29.5369C26.6596 29.9081 26.1563 30.117 25.6314 30.1176H3.86257C3.33759 30.117 2.8343 29.9081 2.46308 29.5369C2.09186 29.1657 1.88302 28.6624 1.88235 28.1374V3.86761C1.88268 3.3424 2.09138 2.83879 2.46264 2.46729C2.8339 2.0958 3.33737 1.88679 3.86257 1.88613H25.6314C26.1566 1.88679 26.66 2.0958 27.0313 2.46729C27.4026 2.83879 27.6113 3.3424 27.6116 3.86761V28.1374Z" fill="#25242B"/>
<path d="M7.11481 8.70399C7.37219 8.70399 7.62379 8.62767 7.8378 8.48467C8.0518 8.34168 8.21858 8.13844 8.31708 7.90065C8.41557 7.66286 8.44135 7.40121 8.39114 7.14877C8.34093 6.89634 8.21698 6.66447 8.03498 6.48247C7.85299 6.30048 7.62112 6.17654 7.36868 6.12632C7.11625 6.07611 6.85459 6.10188 6.6168 6.20038C6.37902 6.29887 6.17577 6.46567 6.03278 6.67967C5.88979 6.89367 5.81348 7.14527 5.81348 7.40265C5.81348 7.74779 5.95058 8.07879 6.19462 8.32283C6.43867 8.56688 6.76968 8.70399 7.11481 8.70399Z" fill="#25242B"/>
<path d="M14.158 8.34384H22.7277C22.9773 8.34384 23.2167 8.24469 23.3932 8.06818C23.5697 7.89168 23.6689 7.65228 23.6689 7.40266C23.6689 7.15305 23.5697 6.91366 23.3932 6.73716C23.2167 6.56065 22.9773 6.46149 22.7277 6.46149H14.158C13.9084 6.46149 13.669 6.56065 13.4925 6.73716C13.316 6.91366 13.2168 7.15305 13.2168 7.40266C13.2168 7.65228 13.316 7.89168 13.4925 8.06818C13.669 8.24469 13.9084 8.34384 14.158 8.34384Z" fill="#25242B"/>
<path d="M6.44118 13.2806H22.7273C22.9769 13.2806 23.2163 13.1815 23.3928 13.0049C23.5693 12.8284 23.6685 12.589 23.6685 12.3394C23.6685 12.0898 23.5693 11.8504 23.3928 11.6739C23.2163 11.4974 22.9769 11.3983 22.7273 11.3983H6.44118C6.19156 11.3983 5.95216 11.4974 5.77566 11.6739C5.59915 11.8504 5.5 12.0898 5.5 12.3394C5.5 12.589 5.59915 12.8284 5.77566 13.0049C5.95216 13.1815 6.19156 13.2806 6.44118 13.2806Z" fill="#25242B"/>
<path d="M22.0931 16.3351H7.42203C6.74583 16.3361 6.09763 16.6052 5.6196 17.0835C5.14157 17.5618 4.87273 18.2101 4.87207 18.8863V24.5861C4.87307 25.262 5.14205 25.9101 5.62004 26.3881C6.09804 26.8661 6.74604 27.135 7.42203 27.136H22.0931C22.7691 27.135 23.4171 26.8661 23.8951 26.3881C24.3731 25.9101 24.6421 25.262 24.6431 24.5861V18.8863C24.6424 18.2101 24.3736 17.5618 23.8955 17.0835C23.4175 16.6052 22.7693 16.3361 22.0931 16.3351ZM22.7607 24.5861C22.7607 24.6737 22.7434 24.7605 22.7099 24.8415C22.6763 24.9225 22.6272 24.9961 22.5652 25.0581C22.5032 25.1201 22.4296 25.1693 22.3486 25.2028C22.2676 25.2364 22.1808 25.2537 22.0931 25.2537H7.42203C7.24497 25.2537 7.07517 25.1833 6.94997 25.0581C6.82476 24.9329 6.75442 24.7631 6.75442 24.5861V18.8863C6.75442 18.7091 6.82472 18.5392 6.94989 18.4138C7.07505 18.2884 7.24485 18.2178 7.42203 18.2174H22.0931C22.2703 18.2178 22.4401 18.2884 22.5652 18.4138C22.6904 18.5392 22.7607 18.7091 22.7607 18.8863V24.5861Z" fill="#25242B"/>
</svg>
