<svg width="33" height="32" viewBox="0 0 33 32" fill="none" xmlns="http://www.w3.org/2000/svg">
<path d="M16.3108 15.4614C17.8397 15.4614 19.3343 15.008 20.6056 14.1586C21.8769 13.3092 22.8677 12.1019 23.4529 10.6894C24.038 9.27691 24.1912 7.7226 23.893 6.22303C23.5948 4.72346 22.8587 3.34598 21.7777 2.26477C20.6967 1.18356 19.3194 0.447161 17.8198 0.148714C16.3203 -0.149734 14.766 0.00317052 13.3533 0.588076C11.9407 1.17298 10.7333 2.16363 9.88364 3.43475C9.03402 4.70587 8.58035 6.20039 8.58008 7.72931C8.58265 9.77896 9.39793 11.7439 10.8471 13.1934C12.2963 14.6428 14.2611 15.4585 16.3108 15.4614ZM16.3108 2.08087C17.4281 2.08059 18.5205 2.41165 19.4498 3.03217C20.379 3.65269 21.1033 4.53481 21.5313 5.567C21.9592 6.59918 22.0714 7.73508 21.8538 8.83106C21.6362 9.92704 21.0985 10.9339 20.3087 11.7243C19.5189 12.5147 18.5124 13.0531 17.4166 13.2715C16.3208 13.49 15.1848 13.3785 14.1523 12.9514C13.1198 12.5242 12.2372 11.8005 11.616 10.8717C10.9948 9.94296 10.6629 8.85085 10.6623 7.73348C10.6631 6.23526 11.2583 4.79855 12.3173 3.73876C13.3763 2.67897 14.8126 2.08271 16.3108 2.08087Z" fill="#25242B"/>
<path d="M21.3944 15.6682C21.1691 15.6379 20.9398 15.6791 20.7392 15.7862C19.3788 16.5202 17.8574 16.9045 16.3117 16.9045C14.7659 16.9045 13.2444 16.5202 11.8841 15.7862C11.6836 15.6788 11.4543 15.6375 11.2289 15.6682C8.11539 16.1421 5.2734 17.7122 3.21475 20.0956C1.1561 22.4789 0.0160653 25.5191 0 28.6684C0 29.552 0.351004 30.3994 0.9758 31.0242C1.6006 31.649 2.44804 32 3.33163 32H29.2903C30.1739 32 31.0213 31.649 31.6461 31.0242C32.2709 30.3994 32.6219 29.552 32.6219 28.6684C32.6062 25.5192 31.4664 22.4791 29.408 20.0957C27.3496 17.7123 24.5078 16.1422 21.3944 15.6682ZM29.2959 29.9136H3.33163C3.16756 29.9136 3.0051 29.8813 2.85352 29.8185C2.70194 29.7557 2.5642 29.6637 2.44818 29.5476C2.33217 29.4316 2.24014 29.2939 2.17735 29.1423C2.11457 28.9908 2.08225 28.8283 2.08225 28.6642C2.09568 26.0711 3.01436 23.5641 4.67955 21.5763C6.34475 19.5884 8.6519 18.2446 11.2025 17.7768C12.7891 18.5691 14.5383 18.9814 16.3117 18.9814C18.0851 18.9814 19.8342 18.5691 21.4208 17.7768C23.9711 18.2449 26.278 19.5888 27.9429 21.5767C29.6079 23.5645 30.5263 26.0713 30.5396 28.6642C30.5396 28.8283 30.5074 28.9908 30.4446 29.1423C30.3818 29.2939 30.2898 29.4316 30.1737 29.5476C30.0577 29.6637 29.92 29.7557 29.7684 29.8185C29.6168 29.8813 29.4544 29.9136 29.2903 29.9136H29.2959Z" fill="#25242B"/>
</svg>
