<svg width="92" height="92" viewBox="0 0 92 92" fill="none" xmlns="http://www.w3.org/2000/svg">
<path d="M79.1312 26.7017C80.041 26.7017 80.9304 26.9715 81.6869 27.4769C82.4433 27.9824 83.0329 28.7008 83.3811 29.5413C83.7293 30.3819 83.8204 31.3068 83.6429 32.1991C83.4654 33.0914 83.0273 33.911 82.3839 34.5544C81.7406 35.1977 80.921 35.6358 80.0287 35.8133C79.1364 35.9908 78.2114 35.8997 77.3709 35.5515C76.5304 35.2033 75.8119 34.6138 75.3065 33.8573C74.801 33.1008 74.5312 32.2115 74.5312 31.3017C74.5312 30.0817 75.0159 28.9116 75.8786 28.049C76.7412 27.1863 77.9113 26.7017 79.1312 26.7017Z" fill="#C49A6B"/>
<path d="M20.6397 49.8109C22.3106 49.8108 23.944 50.3062 25.3333 51.2344C26.7227 52.1626 27.8055 53.482 28.445 55.0257C29.0845 56.5693 29.2518 58.268 28.9259 59.9068C28.5999 61.5456 27.7953 63.0509 26.6138 64.2324C25.4324 65.4139 23.927 66.2185 22.2882 66.5444C20.6495 66.8704 18.9508 66.703 17.4071 66.0635C15.8635 65.4241 14.5441 64.3412 13.6159 62.9519C12.6876 61.5625 12.1923 59.9291 12.1924 58.2582C12.1925 56.0179 13.0826 53.8694 14.6667 52.2852C16.2509 50.7011 18.3994 49.8111 20.6397 49.8109Z" fill="#FF5656"/>
<path d="M43.0414 28.8699C42.1316 28.8699 41.2422 28.6001 40.4858 28.0947C39.7293 27.5892 39.1397 26.8708 38.7916 26.0303C38.4434 25.1897 38.3523 24.2648 38.5298 23.3725C38.7073 22.4802 39.1454 21.6606 39.7887 21.0172C40.432 20.3739 41.2517 19.9358 42.144 19.7583C43.0363 19.5808 43.9612 19.6719 44.8018 20.0201C45.6423 20.3682 46.3607 20.9578 46.8662 21.7143C47.3716 22.4708 47.6414 23.3601 47.6414 24.2699C47.6414 25.4899 47.1568 26.66 46.2941 27.5226C45.4314 28.3853 44.2614 28.8699 43.0414 28.8699Z" fill="#6C7B95"/>
<path d="M36.7854 61.2384C37.8673 61.2384 38.9248 61.5592 39.8244 62.1603C40.7239 62.7613 41.425 63.6156 41.839 64.6151C42.253 65.6146 42.3613 66.7145 42.1503 67.7755C41.9392 68.8366 41.4182 69.8113 40.6533 70.5762C39.8883 71.3412 38.9136 71.8622 37.8525 72.0733C36.7915 72.2843 35.6916 72.176 34.6921 71.762C33.6926 71.348 32.8383 70.6469 32.2373 69.7473C31.6362 68.8478 31.3154 67.7902 31.3154 66.7084C31.3154 65.2577 31.8917 63.8663 32.9175 62.8405C33.9434 61.8147 35.3347 61.2384 36.7854 61.2384Z" fill="#262260"/>
<path d="M14.095 34.3313C15.1768 34.3313 16.2344 34.6521 17.1339 35.2532C18.0335 35.8542 18.7346 36.7085 19.1486 37.708C19.5626 38.7075 19.6709 39.8073 19.4598 40.8684C19.2488 41.9295 18.7278 42.9042 17.9628 43.6691C17.1978 44.4341 16.2232 44.9551 15.1621 45.1662C14.101 45.3772 13.0012 45.2689 12.0017 44.8549C11.0022 44.4409 10.1479 43.7398 9.54685 42.8402C8.94581 41.9407 8.625 40.8831 8.625 39.8013C8.625 38.3505 9.2013 36.9592 10.2271 35.9334C11.2529 34.9076 12.6442 34.3313 14.095 34.3313Z" fill="#746256"/>
<path d="M76.6262 43.3479C77.7081 43.3479 78.7657 43.6687 79.6652 44.2698C80.5647 44.8708 81.2658 45.7251 81.6798 46.7246C82.0938 47.7241 82.2022 48.8239 81.9911 49.885C81.78 50.9461 81.2591 51.9207 80.4941 52.6857C79.7291 53.4507 78.7544 53.9717 77.6934 54.1828C76.6323 54.3938 75.5325 54.2855 74.533 53.8715C73.5334 53.4575 72.6792 52.7564 72.0781 51.8568C71.4771 50.9573 71.1562 49.8997 71.1562 48.8179C71.1563 47.3671 71.7326 45.9758 72.7584 44.95C73.7842 43.9242 75.1755 43.3479 76.6262 43.3479Z" fill="#FFDC34"/>
<path d="M66.0837 54.0872C67.7545 54.0872 69.3878 54.5826 70.777 55.5109C72.1663 56.4392 73.2491 57.7585 73.8885 59.3022C74.5279 60.8458 74.6952 62.5444 74.3692 64.1832C74.0433 65.8219 73.2387 67.3272 72.0572 68.5086C70.8758 69.6901 69.3705 70.4947 67.7317 70.8207C66.093 71.1466 64.3944 70.9793 62.8508 70.3399C61.3071 69.7005 59.9877 68.6177 59.0595 67.2285C58.1312 65.8392 57.6357 64.2059 57.6357 62.5351C57.6357 60.2945 58.5258 58.1458 60.1101 56.5615C61.6944 54.9772 63.8431 54.0872 66.0837 54.0872Z" fill="#D89CF6"/>
<path d="M25.9674 19.5498C27.6383 19.5498 29.2716 20.0453 30.6608 20.9735C32.0501 21.9018 33.1329 23.2212 33.7723 24.7648C34.4117 26.3085 34.579 28.0071 34.253 29.6458C33.927 31.2845 33.1225 32.7898 31.941 33.9713C30.7595 35.1527 29.2543 35.9573 27.6155 36.2833C25.9768 36.6092 24.2782 36.442 22.7346 35.8026C21.1909 35.1631 19.8715 34.0804 18.9433 32.6911C18.015 31.3019 17.5195 29.6685 17.5195 27.9977C17.5195 26.8883 17.738 25.7898 18.1626 24.7648C18.5871 23.7399 19.2094 22.8086 19.9939 22.0241C20.7783 21.2397 21.7096 20.6174 22.7346 20.1929C23.7595 19.7683 24.858 19.5498 25.9674 19.5498Z" fill="#52DE97"/>
<path d="M49.5316 61.2516C48.6218 61.2516 47.7325 60.9818 46.976 60.4764C46.2196 59.9709 45.63 59.2525 45.2818 58.412C44.9336 57.5714 44.8425 56.6465 45.02 55.7542C45.1975 54.8619 45.6356 54.0423 46.2789 53.3989C46.9223 52.7556 47.7419 52.3175 48.6342 52.14C49.5265 51.9625 50.4514 52.0536 51.292 52.4018C52.1325 52.75 52.851 53.3395 53.3564 54.096C53.8619 54.8525 54.1316 55.7418 54.1316 56.6516C54.1316 57.8716 53.647 59.0417 52.7843 59.9043C51.9217 60.767 50.7516 61.2516 49.5316 61.2516Z" fill="#FF8BA7"/>
<path d="M59.1481 24.4735C61.517 24.4735 63.8326 25.1759 65.8023 26.492C67.7719 27.808 69.3071 29.6786 70.2136 31.8671C71.1202 34.0557 71.3574 36.4638 70.8953 38.7872C70.4332 41.1105 69.2925 43.2447 67.6175 44.9197C65.9425 46.5948 63.8085 47.7356 61.4851 48.1978C59.1618 48.66 56.7536 48.4229 54.565 47.5165C52.3765 46.61 50.5058 45.0749 49.1897 43.1054C47.8736 41.1358 47.171 38.8202 47.1709 36.4513C47.1709 33.2747 48.4328 30.2282 50.6789 27.9819C52.9251 25.7357 55.9715 24.4737 59.1481 24.4735Z" fill="#F48238"/>
<path d="M35.5869 37.7095C37.1002 37.7094 38.5795 38.158 39.8378 38.9987C41.096 39.8393 42.0768 41.0342 42.6559 42.4323C43.2351 43.8303 43.3866 45.3687 43.0914 46.8529C42.7962 48.3371 42.0676 49.7004 40.9975 50.7705C39.9275 51.8405 38.5642 52.5692 37.08 52.8644C35.5958 53.1596 34.0574 53.008 32.6593 52.4289C31.2613 51.8497 30.0664 50.869 29.2257 49.6107C28.385 48.3524 27.9364 46.8731 27.9365 45.3598C27.9365 43.3308 28.7426 41.3849 30.1773 39.9502C31.612 38.5155 33.5579 37.7095 35.5869 37.7095Z" fill="#46B3E6"/>
</svg>
