<svg width="33" height="22" viewBox="0 0 33 22" fill="none" xmlns="http://www.w3.org/2000/svg">
<path d="M27.7135 0.984146C27.6298 0.845231 27.5116 0.730287 27.3705 0.650467C27.2293 0.570647 27.0699 0.52866 26.9077 0.528564H5.09494C4.93246 0.528696 4.77278 0.570825 4.63138 0.650869C4.48999 0.730914 4.37169 0.846153 4.28796 0.985401L0.13499 7.87562C0.04899 8.01839 0.00243975 8.18143 9.33035e-05 8.34807C-0.00225314 8.51472 0.0396956 8.67901 0.121642 8.82414C0.203588 8.96927 0.322593 9.09004 0.466505 9.1741C0.610416 9.25817 0.774063 9.30252 0.94073 9.30261H3.22493V18.1407C3.22692 19.1647 3.63502 20.1461 4.35969 20.8696C5.08437 21.5931 6.06645 21.9996 7.09047 21.9999H24.9122C25.9363 21.9986 26.9181 21.5912 27.6423 20.867C28.3665 20.1428 28.7739 19.161 28.7752 18.1369V9.29885H31.0619C31.2289 9.29911 31.3929 9.25496 31.5372 9.17092C31.6814 9.08688 31.8008 8.96598 31.8829 8.82061C31.965 8.67525 32.007 8.51066 32.0046 8.34372C32.0021 8.17677 31.9553 8.01349 31.8689 7.8706L27.7135 0.984146ZM5.62457 2.41114H17.4584L14.4375 7.42004H2.60493L5.62457 2.41114ZM5.10498 18.1407V9.30261H14.9697C15.132 9.30249 15.2916 9.2605 15.4329 9.18069C15.5743 9.10089 15.6927 8.98596 15.7767 8.84703L18.1613 4.89488V20.1174H7.09047C6.56563 20.1174 6.0622 19.9093 5.6905 19.5388C5.3188 19.1683 5.10917 18.6655 5.1075 18.1407H5.10498ZM26.8927 18.1407C26.891 18.6651 26.6817 19.1675 26.3105 19.5379C25.9394 19.9084 25.4366 20.1167 24.9122 20.1174H20.0426V4.87104L22.4335 8.84578C22.5172 8.98503 22.6355 9.10026 22.7769 9.18031C22.9183 9.26035 23.078 9.30248 23.2405 9.30261H26.8927V18.1407ZM23.7726 7.42004L20.7605 2.41114H26.3731L29.3927 7.42004H23.7726Z" fill="#25242B"/>
</svg>
