<svg width="32" height="32" viewBox="0 0 32 32" fill="none" xmlns="http://www.w3.org/2000/svg">
<path d="M24.9051 32H7.08813C6.06384 31.9987 5.0819 31.5911 4.35785 30.8666C3.6338 30.1421 3.22679 29.1597 3.22613 28.1354V15.4529L0.601377 14.4316C0.449224 14.3719 0.314987 14.2739 0.211884 14.147C0.108781 14.0202 0.0401669 13.8686 0.0127725 13.7075C-0.0141906 13.5454 0.00172611 13.3793 0.0587213 13.2253C0.115717 13.0713 0.211857 12.9347 0.337784 12.8292L15.3943 0.21933C15.5638 0.0772617 15.778 -0.00024419 15.9991 5.77968e-07C16.2199 -5.64811e-05 16.4335 0.0774446 16.6026 0.21933L31.6591 12.8292C31.785 12.9347 31.8813 13.0713 31.9383 13.2253C31.9953 13.3793 32.0111 13.5454 31.9841 13.7075C31.9566 13.8686 31.888 14.0199 31.7849 14.1467C31.6818 14.2736 31.5478 14.3718 31.3957 14.4316L28.7708 15.4529V28.1354C28.7701 29.1603 28.3625 30.1432 27.6377 30.8678C26.9128 31.5924 25.93 31.9997 24.9051 32ZM15.9965 22.1921C15.7462 22.1931 15.5066 22.2932 15.3301 22.4708C15.1537 22.6484 15.0548 22.8889 15.0555 23.1392C15.0558 23.3887 15.1551 23.6279 15.3315 23.8043C15.5079 23.9807 15.7471 24.0799 15.9965 24.0803C16.246 24.0799 16.4852 23.9807 16.6616 23.8043C16.838 23.6279 16.9372 23.3887 16.9376 23.1392V23.1267C16.9371 23.0033 16.9123 22.8812 16.8647 22.7673C16.817 22.6535 16.7473 22.5501 16.6597 22.4632C16.5721 22.3762 16.4682 22.3075 16.354 22.2607C16.2398 22.2139 16.1175 22.19 15.9941 22.1905L15.9965 22.1921ZM15.9677 14.8255C16.1852 14.8109 16.4033 14.8399 16.6093 14.911C16.8154 14.9821 17.0052 15.094 17.1673 15.2397C17.3204 15.3983 17.438 15.5873 17.5124 15.7948C17.5868 16.0022 17.6163 16.2233 17.5989 16.4429C17.6193 16.7494 17.5485 17.0549 17.3955 17.3212C17.2288 17.5284 17.0071 17.6844 16.7558 17.7715C16.3062 17.9474 15.9052 18.2284 15.5864 18.5909C15.2316 19.0345 15.0445 19.589 15.0581 20.1568V20.3449C15.0581 20.5945 15.1572 20.8338 15.3336 21.0103C15.5101 21.1867 15.7496 21.286 15.9991 21.286C16.2486 21.2856 16.4878 21.1864 16.6642 21.01C16.8406 20.8335 16.9398 20.5944 16.9402 20.3449V20.1568C16.9289 20.0293 16.9616 19.9017 17.033 19.7954C17.1543 19.6698 17.3028 19.5738 17.4671 19.5145C18.0502 19.2964 18.558 18.9143 18.9288 18.4142C19.3161 17.8317 19.5102 17.1419 19.4834 16.4429C19.4997 15.9739 19.4201 15.5063 19.2497 15.0691C19.0793 14.6318 18.8215 14.2339 18.4922 13.8995C18.1556 13.5817 17.7596 13.3335 17.3268 13.1692C16.8939 13.005 16.4329 12.9278 15.9702 12.9423C15.5128 12.925 15.0568 13.001 14.6297 13.1656C14.2026 13.3301 13.8134 13.5798 13.4859 13.8995C13.1551 14.2369 12.8982 14.6397 12.7319 15.0819C12.5655 15.5242 12.4933 15.9963 12.5197 16.4681C12.5201 16.7175 12.6193 16.9567 12.7957 17.1331C12.9721 17.3095 13.2113 17.4088 13.4608 17.4091C13.7105 17.4091 13.95 17.3098 14.1267 17.1334C14.3034 16.957 14.4029 16.7178 14.4032 16.4681C14.377 16.2461 14.3996 16.0211 14.4697 15.8089C14.5397 15.5966 14.6553 15.4025 14.8085 15.2397C14.9617 15.0941 15.1436 14.982 15.3425 14.9107C15.5415 14.8394 15.7531 14.8104 15.9639 14.8255H15.9677Z" fill="url(#paint0_linear)"/>
<defs>
<linearGradient id="paint0_linear" x1="15.9985" y1="0" x2="15.9985" y2="32" gradientUnits="userSpaceOnUse">
<stop stop-color="#FF8434"/>
<stop offset="1" stop-color="#FE5921"/>
</linearGradient>
</defs>
</svg>
